<?xml version="1.0" encoding="iso-8859-1"?>
<!-- Uploaded to: SVG Repo, www.svgrepo.com, Generator: SVG Repo Mixer Tools -->
<svg fill="#000000" height="800px" width="800px" version="1.1" id="Layer_1" xmlns="http://www.w3.org/2000/svg" xmlns:xlink="http://www.w3.org/1999/xlink" 
	 viewBox="0 0 512.002 512.002" xml:space="preserve">
<g>
	<g>
		<path d="M501.819,204.908c-0.054-0.032-0.109-0.065-0.166-0.096L288.161,83.199c-6.55-3.893-14.416-3.978-21.058-0.221
			c-6.672,3.775-10.654,10.606-10.654,18.271v43.804c-0.979,0.147-1.955,0.293-2.925,0.438
			c-22.733,3.219-45.696,8.538-68.253,15.807c-4.356,1.404-6.75,6.073-5.346,10.428c1.403,4.355,6.076,6.746,10.427,5.345
			c21.661-6.98,43.698-12.084,65.559-15.182c3.345-0.499,6.692-0.998,10.037-1.493c4.063-0.601,7.074-4.089,7.074-8.196v-50.951
			c0-2.327,1.569-3.466,2.244-3.847c0.674-0.383,2.459-1.14,4.453,0.057c0.054,0.032,0.109,0.065,0.166,0.096l213.463,121.598
			c1.877,1.166,2.082,3.007,2.082,3.752c0,0.745-0.205,2.587-2.082,3.752L279.883,348.253c-0.055,0.031-0.11,0.063-0.166,0.096
			c-1.994,1.2-3.781,0.44-4.453,0.059c-0.674-0.382-2.244-1.521-2.244-3.848V293.61c0-4.03-2.901-7.477-6.873-8.164l-3.305-0.573
			c-43.543-7.538-78.476-7.374-109.936,0.514c-15.79,3.959-30.708,10.254-44.34,18.709c-3.889,2.412-5.086,7.52-2.675,11.409
			c2.413,3.889,7.522,5.086,11.409,2.674c12.174-7.551,25.509-13.175,39.636-16.717c28.293-7.096,59.994-7.379,99.511-0.863v43.962
			c0,7.665,3.984,14.496,10.655,18.271c3.254,1.841,6.801,2.76,10.344,2.76c3.688,0,7.371-0.995,10.715-2.981l213.491-121.612
			c0.055-0.032,0.11-0.064,0.166-0.097c6.376-3.83,10.183-10.557,10.183-17.994C512.002,215.466,508.194,208.738,501.819,204.908z"
			/>
	</g>
</g>
<g>
	<g>
		<path d="M162.262,178.28c-1.827-4.195-6.71-6.114-10.905-4.286c-44.081,19.203-80.76,47.148-106.073,80.813
			C13.452,297.144-2.9,352.795,0.424,407.495l0.011,0.178c0.867,13.695,12.061,24.11,25.677,24.11c0.323,0,0.647-0.006,0.972-0.018
			l0.602-0.022c11.425-0.413,21.326-8.417,24.075-19.456l0.075-0.298c5.227-20.055,13.569-38.526,24.794-54.903
			c4.765-6.953,10.178-13.482,16.089-19.407c3.231-3.239,3.226-8.486-0.014-11.717c-3.239-3.231-8.486-3.226-11.717,0.014
			c-6.624,6.641-12.689,13.956-18.026,21.743c-12.312,17.96-21.449,38.178-27.176,60.15l-0.104,0.409
			c-0.977,3.919-4.511,6.759-8.614,6.907l-0.577,0.021c-4.936,0.169-9.208-3.669-9.516-8.552l-0.01-0.167
			c-3.089-50.827,12.062-102.481,41.565-141.72c23.598-31.383,57.985-57.517,99.446-75.58
			C162.171,187.358,164.09,182.476,162.262,178.28z"/>
	</g>
</g>
</svg>